<?xml version="1.0" standalone="no"?>
<!DOCTYPE svg PUBLIC "-//W3C//DTD SVG 20010904//EN"
 "http://www.w3.org/TR/2001/REC-SVG-20010904/DTD/svg10.dtd">
<svg version="1.0" xmlns="http://www.w3.org/2000/svg"
 width="16.000000pt" height="16.000000pt" viewBox="0 0 16.000000 16.000000"
 preserveAspectRatio="xMidYMid meet">
<metadata>
Created by potrace 1.11, written by Peter Selinger 2001-2013
</metadata>
<g transform="translate(0.000000,16.000000) scale(0.003125,-0.003125)"
fill="#000000" stroke="none">
<path d="M0 2560 l0 -2560 2560 0 2560 0 0 2560 0 2560 -2560 0 -2560 0 0
-2560z m2678 2048 c9 -9 12 -95 12 -325 l0 -313 -120 0 -120 0 0 313 c0 230 3
316 12 325 16 16 200 16 216 0z m-741 -220 c9 -12 189 -443 195 -467 3 -9
-213 -106 -217 -98 -22 37 -196 481 -192 491 6 14 160 84 188 85 9 1 21 -5 26
-11z m1387 -25 c48 -20 90 -42 93 -49 4 -12 -181 -471 -197 -487 -4 -5 -27 1
-51 13 -23 12 -70 33 -103 45 -38 15 -60 29 -58 37 6 26 184 453 194 466 15
18 24 16 122 -25z m-1864 -538 l185 -185 -83 -82 -82 -83 -185 185 c-102 102
-185 192 -185 200 0 16 137 150 155 150 5 0 93 -83 195 -185z m2487 113 c40
-40 73 -77 73 -83 0 -6 -83 -93 -185 -195 l-185 -185 -82 82 -81 81 31 39 c52
65 328 333 343 333 7 0 46 -33 86 -72z m-1201 -213 c177 -31 320 -87 464 -180
96 -63 272 -239 335 -335 260 -399 260 -901 0 -1300 -63 -96 -239 -272 -335
-335 -399 -260 -901 -260 -1300 0 -96 63 -272 239 -335 335 -260 399 -260 901
0 1300 63 96 239 272 335 335 249 162 557 228 836 180z m-1686 -422 c129 -53
236 -97 237 -98 8 -4 -89 -220 -98 -217 -35 9 -457 187 -469 198 -12 12 -12
19 -1 51 29 82 70 163 83 163 7 0 119 -43 248 -97z m3278 85 c15 -20 72 -160
72 -179 0 -23 -13 -31 -105 -69 -44 -18 -148 -61 -231 -95 l-151 -63 -42 102
c-23 55 -43 105 -44 110 -2 10 446 203 474 205 9 1 21 -5 27 -11z m-3188 -838
l0 -120 -313 0 c-230 0 -316 3 -325 12 -16 16 -16 200 0 216 9 9 95 12 325 12
l313 0 0 -120z m3468 108 c16 -16 16 -200 0 -216 -9 -9 -95 -12 -325 -12
l-313 0 0 120 0 120 313 0 c230 0 316 -3 325 -12z m-3393 -575 c3 -15 22 -61
41 -102 19 -41 31 -78 27 -82 -17 -16 -476 -200 -487 -196 -7 3 -30 46 -51 97
-29 68 -36 96 -29 108 11 16 474 213 485 206 4 -2 10 -16 14 -31z m2973 -77
c183 -76 212 -91 212 -110 -1 -29 -65 -179 -81 -189 -13 -8 -79 18 -466 178
l-31 13 46 110 46 111 31 -13 c16 -7 126 -52 243 -100z m-2738 -721 c-102
-102 -189 -185 -195 -185 -15 0 -155 143 -155 159 0 8 82 97 182 198 l183 183
85 -85 85 -85 -185 -185z m2560 -30 c0 -13 -142 -155 -155 -155 -5 0 -93 83
-195 185 l-186 186 81 82 80 82 188 -185 c103 -102 187 -189 187 -195z m-1899
-53 c14 -6 3 -39 -80 -237 -53 -127 -100 -236 -104 -243 -5 -6 -16 -12 -25
-12 -28 0 -175 65 -185 82 -7 11 16 77 83 239 51 123 96 231 101 240 8 17 37
7 210 -69z m1204 -162 c64 -156 94 -240 88 -249 -10 -16 -160 -80 -189 -81
-21 0 -36 31 -210 456 l-13 30 107 45 c59 25 110 43 113 40 4 -3 50 -112 104
-241z m-635 -213 c0 -230 -3 -316 -12 -325 -16 -16 -200 -16 -216 0 -9 9 -12
95 -12 325 l0 313 120 0 120 0 0 -313z"/>
</g>
</svg>
